<svg width="171" height="33" viewBox="0 0 171 33" fill="none" xmlns="http://www.w3.org/2000/svg">
<path d="M41.1314 16.312C40.6834 16.312 40.2834 16.152 39.9314 15.832C39.6114 15.512 39.4514 15.112 39.4514 14.632V9.352H36.4754C36.0274 9.352 35.6434 9.208 35.3234 8.92C35.0354 8.632 34.8914 8.264 34.8914 7.816C34.8914 7.368 35.0354 7 35.3234 6.712C35.6434 6.392 36.0274 6.232 36.4754 6.232H39.4514V1.768C39.4514 1.32 39.6114 0.935999 39.9314 0.615999C40.2834 0.263998 40.6834 0.0879974 41.1314 0.0879974C41.5794 0.0879974 41.9634 0.263998 42.2834 0.615999C42.6354 0.935999 42.8114 1.32 42.8114 1.768V14.632C42.8114 15.112 42.6354 15.512 42.2834 15.832C41.9634 16.152 41.5794 16.312 41.1314 16.312ZM23.2274 32.248C16.9234 32.248 11.9474 31.64 8.29938 30.424C4.68338 29.208 2.87538 27.416 2.87538 25.048C2.87538 22.68 4.68338 20.888 8.29938 19.672C11.9474 18.456 16.9234 17.848 23.2274 17.848C29.4994 17.848 34.4274 18.456 38.0114 19.672C41.5954 20.888 43.3874 22.68 43.3874 25.048C43.3874 27.416 41.5954 29.208 38.0114 30.424C34.4274 31.64 29.4994 32.248 23.2274 32.248ZM23.2274 29.128C26.4274 29.128 29.3074 28.952 31.8674 28.6C34.4274 28.216 36.4274 27.72 37.8674 27.112C39.3074 26.472 40.0274 25.784 40.0274 25.048C40.0274 24.312 39.3074 23.64 37.8674 23.032C36.4274 22.392 34.4274 21.896 31.8674 21.544C29.3074 21.16 26.4274 20.968 23.2274 20.968C20.0274 20.968 17.1314 21.16 14.5394 21.544C11.9474 21.896 9.91538 22.392 8.44338 23.032C6.97138 23.64 6.23538 24.312 6.23538 25.048C6.23538 25.784 6.97138 26.472 8.44338 27.112C9.91538 27.72 11.9474 28.216 14.5394 28.6C17.1314 28.952 20.0274 29.128 23.2274 29.128ZM1.77138 15.208C1.25938 15.272 0.827375 15.16 0.475375 14.872C0.155375 14.552 -0.00462461 14.168 -0.00462461 13.72C-0.00462461 13.304 0.123375 12.936 0.379375 12.616C0.635375 12.296 1.01938 12.12 1.53138 12.088C3.22738 11.864 5.16338 11.368 7.33938 10.6C9.51538 9.832 11.3714 8.888 12.9074 7.768C14.4754 6.648 15.2594 5.464 15.2594 4.216V4.168H2.87538C2.36338 4.168 1.96338 4.024 1.67538 3.736C1.38738 3.416 1.24338 3.048 1.24338 2.632C1.24338 2.184 1.38738 1.816 1.67538 1.528C1.96338 1.208 2.36338 1.048 2.87538 1.048H30.5714C31.0834 1.048 31.4834 1.208 31.7714 1.528C32.0594 1.816 32.2034 2.184 32.2034 2.632C32.2034 3.048 32.0594 3.416 31.7714 3.736C31.4834 4.024 31.0834 4.168 30.5714 4.168H18.5234V4.216C18.5234 5.464 19.3234 6.664 20.9234 7.816C22.5234 8.936 24.3794 9.896 26.4914 10.696C28.6354 11.464 30.4114 11.928 31.8194 12.088C32.2994 12.12 32.6674 12.296 32.9234 12.616C33.1794 12.904 33.3074 13.24 33.3074 13.624C33.3074 14.104 33.1314 14.504 32.7794 14.824C32.4594 15.144 32.0114 15.272 31.4354 15.208C28.8754 14.856 26.1714 14.056 23.3234 12.808C20.4754 11.56 18.3314 10.024 16.8914 8.2C15.4194 10.024 13.2274 11.56 10.3154 12.808C7.43538 14.024 4.58738 14.824 1.77138 15.208ZM59.7659 31.192C57.7819 31.192 56.3579 30.904 55.4939 30.328C54.6299 29.72 54.1979 28.664 54.1979 27.16V24.088C54.1979 23.544 54.3579 23.128 54.6779 22.84C55.0299 22.52 55.4459 22.36 55.9259 22.36C56.4059 22.36 56.8059 22.52 57.1259 22.84C57.4779 23.128 57.6539 23.544 57.6539 24.088V26.344C57.6539 26.856 57.7179 27.224 57.8459 27.448C57.9739 27.672 58.2299 27.832 58.6139 27.928C59.0299 27.992 59.6859 28.024 60.5819 28.024H92.5019C92.9499 28.024 93.3179 28.184 93.6059 28.504C93.9259 28.792 94.0859 29.16 94.0859 29.608C94.0859 30.056 93.9259 30.44 93.6059 30.76C93.3179 31.048 92.9499 31.192 92.5019 31.192H59.7659ZM53.0939 19.768C52.6459 19.768 52.2619 19.624 51.9419 19.336C51.6539 19.016 51.5099 18.632 51.5099 18.184C51.5099 17.736 51.6539 17.368 51.9419 17.08C52.2619 16.792 52.6459 16.648 53.0939 16.648H93.5579C94.0059 16.648 94.3739 16.792 94.6619 17.08C94.9499 17.368 95.0939 17.736 95.0939 18.184C95.0939 18.632 94.9499 19.016 94.6619 19.336C94.3739 19.624 94.0059 19.768 93.5579 19.768H53.0939ZM58.5659 12.808C56.9339 12.808 55.7499 12.52 55.0139 11.944C54.3099 11.336 53.9579 10.264 53.9579 8.728V5.08C53.9579 3.608 54.3099 2.568 55.0139 1.96C55.7499 1.352 56.9339 1.048 58.5659 1.048H90.7739C91.2859 1.048 91.6859 1.208 91.9739 1.528C92.2619 1.848 92.4059 2.232 92.4059 2.68C92.4059 3.096 92.2619 3.464 91.9739 3.784C91.6859 4.072 91.2859 4.216 90.7739 4.216H59.4779C58.7739 4.216 58.2779 4.264 57.9899 4.36C57.7339 4.424 57.5579 4.6 57.4619 4.888C57.3659 5.144 57.3179 5.608 57.3179 6.28V7.576C57.3179 8.248 57.3659 8.728 57.4619 9.016C57.5579 9.272 57.7499 9.448 58.0379 9.544C58.3259 9.608 58.8219 9.64 59.5259 9.64H91.6379C92.1499 9.64 92.5499 9.8 92.8379 10.12C93.1259 10.408 93.2699 10.76 93.2699 11.176C93.2699 11.624 93.1259 12.008 92.8379 12.328C92.5499 12.648 92.1499 12.808 91.6379 12.808H58.5659ZM112.204 30.184C111.756 30.728 111.244 31 110.668 31C110.316 31 109.964 30.872 109.612 30.616C109.132 30.232 108.892 29.768 108.892 29.224C108.892 28.808 109.052 28.392 109.372 27.976L128.524 3.928C129.58 2.584 130.78 1.912 132.124 1.912C133.468 1.912 134.668 2.584 135.724 3.928L154.876 27.976C155.196 28.392 155.356 28.808 155.356 29.224C155.356 29.768 155.116 30.232 154.636 30.616C154.284 30.872 153.932 31 153.58 31C153.004 31 152.492 30.728 152.044 30.184L145.564 22.024H118.684L112.204 30.184ZM142.924 18.712L133.228 6.472C132.908 6.024 132.54 5.8 132.124 5.8C131.74 5.8 131.372 6.024 131.02 6.472L121.324 18.712H142.924ZM159.305 30.28C158.825 30.28 158.425 30.12 158.105 29.8C157.785 29.448 157.625 29.048 157.625 28.6C157.625 28.152 157.785 27.768 158.105 27.448C158.425 27.096 158.825 26.92 159.305 26.92H161.993V5.992H159.689C159.209 5.992 158.809 5.832 158.489 5.512C158.169 5.16 158.009 4.76 158.009 4.312C158.009 3.864 158.169 3.48 158.489 3.16C158.809 2.808 159.209 2.632 159.689 2.632H167.993C168.441 2.632 168.825 2.808 169.145 3.16C169.497 3.48 169.673 3.864 169.673 4.312C169.673 4.76 169.497 5.16 169.145 5.512C168.825 5.832 168.441 5.992 167.993 5.992H165.689V26.92H168.377C168.825 26.92 169.209 27.096 169.529 27.448C169.881 27.768 170.057 28.152 170.057 28.6C170.057 29.048 169.881 29.448 169.529 29.8C169.209 30.12 168.825 30.28 168.377 30.28H159.305Z" fill="#008DCF"/>
</svg>
