<svg width="274" height="49" viewBox="0 0 274 49" fill="none" xmlns="http://www.w3.org/2000/svg">
<path d="M48.1578 8.656C47.7018 8.656 47.3178 8.296 47.3178 7.816V1.384C47.3178 0.927999 47.7018 0.543999 48.1578 0.543999C48.6138 0.543999 48.9978 0.927999 48.9978 1.384V7.816C48.9978 8.296 48.6138 8.656 48.1578 8.656ZM48.1578 16.336C47.7018 16.336 47.3178 15.952 47.3178 15.496V12.52C47.3178 11.728 47.1738 11.608 46.1658 11.608H29.9658C29.5098 11.608 29.1738 11.248 29.1738 10.816C29.1738 10.384 29.5098 10.024 29.9658 10.024H46.1178C48.3498 10.024 49.0218 10.432 48.9978 12.184V15.496C48.9978 15.952 48.6138 16.336 48.1578 16.336ZM28.4778 8.104C27.9738 8.176 27.6378 7.816 27.6138 7.408C27.5658 7.024 27.7818 6.592 28.3578 6.544C30.8538 6.256 35.5098 4.624 35.5098 2.584H29.0778C28.5498 2.584 28.2618 2.2 28.2618 1.816C28.2618 1.408 28.5498 1.024 29.0778 1.024H43.5738C44.1018 1.024 44.3898 1.408 44.3898 1.816C44.3898 2.2 44.1018 2.584 43.5738 2.584H37.1418C37.1418 4.648 42.0138 6.304 44.2938 6.544C44.8458 6.592 45.0858 7.024 45.0618 7.408C45.0138 7.816 44.6778 8.176 44.1258 8.104C41.6778 7.768 37.9818 6.64 36.3258 4.576C34.6938 6.616 31.0218 7.792 28.4778 8.104ZM73.3871 8.656C72.9311 8.656 72.5471 8.296 72.5471 7.816V5.176H71.0591C70.6031 5.176 70.2671 4.84 70.2671 4.408C70.2671 3.976 70.6031 3.616 71.0591 3.616H72.5471V1.384C72.5471 0.927999 72.9311 0.543999 73.3871 0.543999C73.8431 0.543999 74.2271 0.927999 74.2271 1.384V7.816C74.2271 8.296 73.8431 8.656 73.3871 8.656ZM57.2831 16.264C55.1471 16.264 54.5231 15.856 54.5231 14.104V10.432C54.5231 9.976 54.9071 9.592 55.3631 9.592C55.8191 9.592 56.1791 9.976 56.1791 10.432V11.368H72.5711V10.432C72.5711 9.976 72.9311 9.592 73.3871 9.592C73.8431 9.592 74.2271 9.976 74.2271 10.432V14.104C74.2271 15.856 73.6031 16.264 71.4671 16.264H57.2831ZM53.7071 8.104C53.2031 8.176 52.8671 7.816 52.8191 7.432C52.7951 7.024 53.0111 6.592 53.5871 6.544C55.9151 6.256 60.4511 4.6 60.4511 2.608V2.584H54.2591C53.7311 2.584 53.4431 2.2 53.4431 1.816C53.4431 1.408 53.7311 1.024 54.2591 1.024H68.1071C68.6591 1.024 68.9231 1.408 68.9231 1.816C68.9231 2.2 68.6591 2.584 68.1071 2.584H62.0831V2.608C62.0831 4.624 66.8591 6.328 68.7311 6.544C69.2831 6.592 69.5231 7.024 69.4751 7.408C69.4271 7.816 69.0911 8.176 68.5391 8.104C66.3071 7.792 62.8271 6.568 61.2671 4.6C59.6831 6.568 56.1791 7.768 53.7071 8.104ZM56.1791 13.792C56.1791 14.584 56.3231 14.704 57.3311 14.704H71.4191C72.4271 14.704 72.5711 14.584 72.5711 13.792V12.904H56.1791V13.792ZM84.558 9.136C84.126 9.136 83.79 8.8 83.79 8.368C83.79 7.936 84.126 7.6 84.558 7.6H104.814C105.246 7.6 105.582 7.936 105.582 8.368C105.582 8.8 105.246 9.136 104.814 9.136H95.526V10.624H103.806C104.238 10.624 104.574 10.96 104.574 11.392C104.574 11.824 104.238 12.136 103.806 12.136H87.894C86.646 12.136 86.526 12.232 86.526 13.192V13.672C86.526 14.632 86.646 14.728 87.894 14.728H104.43C104.862 14.728 105.198 15.064 105.198 15.496C105.198 15.928 104.862 16.264 104.43 16.264H87.534C85.686 16.264 84.846 15.808 84.846 14.176V12.712C84.846 11.08 85.686 10.624 87.534 10.624H93.846V9.136H84.558ZM87.126 6.4C85.422 6.4 84.894 5.992 84.894 4.48V2.944C84.894 1.432 85.422 1.024 87.126 1.024H102.246C103.95 1.024 104.478 1.432 104.478 2.944V4.48C104.478 5.992 103.95 6.4 102.246 6.4H87.126ZM102.006 4.864C102.702 4.864 102.822 4.768 102.822 4.216V3.184C102.822 2.656 102.702 2.56 102.006 2.56H87.366C86.67 2.56 86.55 2.656 86.55 3.184V4.216C86.55 4.768 86.67 4.864 87.366 4.864H102.006ZM129.083 16.336C128.627 16.336 128.243 15.976 128.243 15.496V1.384C128.243 0.927999 128.627 0.543999 129.083 0.543999C129.539 0.543999 129.923 0.927999 129.923 1.384V15.496C129.923 15.976 129.539 16.336 129.083 16.336ZM110.387 15.712C109.835 15.808 109.499 15.496 109.403 15.112C109.307 14.728 109.523 14.248 110.075 14.152C115.619 13.072 121.043 9.16 122.123 3.808C122.291 2.944 122.219 2.8 121.547 2.8H110.699C110.267 2.8 109.907 2.44 109.907 2.008C109.907 1.576 110.267 1.216 110.699 1.216H121.883C123.707 1.216 124.187 2.176 123.707 4.24C122.291 10.336 116.531 14.536 110.387 15.712ZM159.526 16.336C159.07 16.336 158.686 15.976 158.686 15.496V8.824H156.982C156.526 8.824 156.166 8.464 156.166 8.008C156.166 7.552 156.526 7.192 156.982 7.192H158.686V1.384C158.686 0.927999 159.07 0.543999 159.526 0.543999C159.982 0.543999 160.366 0.927999 160.366 1.384V15.496C160.366 15.976 159.982 16.336 159.526 16.336ZM147.166 16.288C142.966 16.288 139.438 13.072 139.438 8.44C139.438 3.808 142.966 0.592 147.166 0.592C151.366 0.592 154.894 3.808 154.894 8.44C154.894 13.072 151.366 16.288 147.166 16.288ZM147.166 14.704C150.55 14.704 153.214 12.088 153.214 8.44C153.214 4.792 150.55 2.176 147.166 2.176C143.782 2.176 141.118 4.792 141.118 8.44C141.118 12.088 143.782 14.704 147.166 14.704ZM184.755 16.336C184.299 16.336 183.915 15.976 183.915 15.496V10.96H181.971C181.515 10.96 181.155 10.624 181.155 10.168C181.155 9.712 181.515 9.352 181.971 9.352H183.915V5.632H181.971C181.515 5.632 181.155 5.296 181.155 4.84C181.155 4.384 181.515 4.024 181.971 4.024H183.915V1.384C183.915 0.927999 184.299 0.543999 184.755 0.543999C185.211 0.543999 185.595 0.927999 185.595 1.384V15.496C185.595 15.976 185.211 16.336 184.755 16.336ZM168.411 15.52C166.275 15.52 165.411 14.848 165.411 12.808V10.216C165.411 7.888 166.443 7.216 168.723 7.216H175.371C176.931 7.216 177.099 7.096 177.099 5.416V4.576C177.099 2.896 176.931 2.776 175.371 2.776H166.179C165.147 2.776 165.147 1.216 166.179 1.216H175.395C177.723 1.216 178.779 1.888 178.779 4.216V5.776C178.779 8.104 177.771 8.776 175.491 8.776H168.819C167.259 8.776 167.091 8.896 167.091 10.576V12.52C167.091 13.84 167.235 13.96 168.699 13.96C173.379 13.96 177.507 13.432 180.003 12.808C181.083 12.544 181.419 14.056 180.387 14.32C177.747 14.992 173.427 15.52 168.411 15.52ZM194.049 16.096C192.081 16.096 191.265 15.592 191.265 14.08V12.544C191.265 11.968 191.697 11.68 192.129 11.68C192.561 11.68 192.993 11.968 192.993 12.544V13.672C192.993 14.416 193.161 14.512 194.457 14.512H210.417C210.849 14.512 211.209 14.848 211.209 15.304C211.209 15.76 210.849 16.096 210.417 16.096H194.049ZM190.713 10.192C190.257 10.192 189.921 9.856 189.921 9.4C189.921 8.968 190.257 8.632 190.713 8.632H210.945C211.377 8.632 211.713 8.968 211.713 9.4C211.713 9.856 211.377 10.192 210.945 10.192H201.897V12.52C201.897 13 201.513 13.36 201.057 13.36C200.601 13.36 200.217 13 200.217 12.52V10.192H190.713ZM200.721 7.288C194.121 7.288 190.353 6.208 190.353 4C190.353 1.792 194.121 0.735999 200.721 0.735999C207.321 0.735999 211.089 1.792 211.089 4C211.089 6.208 207.321 7.288 200.721 7.288ZM200.721 5.8C206.193 5.8 209.409 4.888 209.409 4C209.409 3.136 206.169 2.224 200.721 2.224C195.249 2.224 192.033 3.136 192.033 4C192.033 4.888 195.249 5.8 200.721 5.8ZM223.771 7.504C221.707 7.504 221.083 7 221.083 5.176V3.328C221.083 1.528 221.707 1.024 223.771 1.024H232.147C234.211 1.024 234.835 1.528 234.835 3.328V5.176C234.835 7 234.211 7.504 232.147 7.504H223.771ZM222.763 5.032C222.763 5.824 222.931 5.944 224.035 5.944H231.883C232.987 5.944 233.155 5.824 233.155 5.032V3.496C233.155 2.704 232.987 2.584 231.883 2.584H224.035C222.931 2.584 222.763 2.704 222.763 3.496V5.032ZM240.187 8.032C239.731 8.032 239.347 7.672 239.347 7.192V1.384C239.347 0.927999 239.731 0.543999 240.187 0.543999C240.643 0.543999 241.027 0.927999 241.027 1.384V3.496H242.443C242.899 3.496 243.259 3.856 243.259 4.312C243.259 4.768 242.899 5.128 242.443 5.128H241.027V7.192C241.027 7.672 240.643 8.032 240.187 8.032ZM223.435 16.336C221.947 16.336 221.131 15.448 221.131 14.104C221.131 12.76 221.947 11.896 223.435 11.896H239.107C239.587 11.896 239.779 11.608 239.779 11.224C239.779 10.84 239.587 10.576 239.107 10.576H221.875C220.771 10.576 220.771 9.04 221.875 9.04H239.155C240.643 9.04 241.459 9.928 241.459 11.248C241.459 12.568 240.643 13.408 239.155 13.408H223.483C223.003 13.408 222.811 13.672 222.811 14.08C222.811 14.488 223.003 14.776 223.483 14.776H241.075C242.203 14.776 242.179 16.336 241.075 16.336H223.435ZM244.585 17.752C244.921 16.96 245.209 15.736 245.305 14.848C245.473 13.24 247.825 13.48 247.537 15.184C247.321 16.384 246.649 17.584 245.857 18.544C245.209 19.36 244.177 18.736 244.585 17.752ZM1.87853 47.592C1.51853 48.024 0.990529 48.12 0.582529 47.808C0.174529 47.472 0.0785287 46.968 0.462529 46.488L10.0385 34.464C10.5905 33.768 11.1665 33.456 11.8385 33.456C12.5105 33.456 13.0865 33.768 13.6385 34.464L23.2145 46.488C23.5985 46.968 23.5025 47.472 23.0945 47.808C22.6865 48.12 22.1585 48.048 21.7985 47.592L18.5585 43.512H5.11853L1.87853 47.592ZM6.43853 41.856H17.2385L12.3905 35.736C12.0305 35.28 11.6465 35.28 11.2865 35.736L6.43853 41.856ZM25.4293 47.64C24.9493 47.64 24.5893 47.256 24.5893 46.8C24.5893 46.344 24.9493 45.96 25.4293 45.96H26.7733V35.496H25.6213C25.1413 35.496 24.7813 35.112 24.7813 34.656C24.7813 34.2 25.1413 33.816 25.6213 33.816H29.7733C30.2293 33.816 30.6133 34.2 30.6133 34.656C30.6133 35.112 30.2293 35.496 29.7733 35.496H28.6213V45.96H29.9653C30.4213 45.96 30.8053 46.344 30.8053 46.8C30.8053 47.256 30.4213 47.64 29.9653 47.64H25.4293ZM53.507 48.336C53.051 48.336 52.667 47.976 52.667 47.496V33.384C52.667 32.928 53.051 32.544 53.507 32.544C53.963 32.544 54.347 32.928 54.347 33.384V39.192H55.763C56.219 39.192 56.579 39.552 56.579 40.008C56.579 40.464 56.219 40.824 55.763 40.824H54.347V47.496C54.347 47.976 53.963 48.336 53.507 48.336ZM35.027 47.712C34.499 47.808 34.163 47.496 34.067 47.112C33.971 46.728 34.187 46.248 34.739 46.152C40.043 45.12 45.371 41.328 46.499 35.808C46.667 34.944 46.595 34.8 45.923 34.8H35.363C34.931 34.8 34.571 34.44 34.571 34.008C34.571 33.576 34.931 33.216 35.363 33.216H46.259C48.083 33.216 48.563 34.176 48.083 36.24C46.643 42.624 40.763 46.656 35.027 47.712ZM84.8139 48.336C84.3579 48.336 83.9739 47.976 83.9739 47.496V41.136H82.0779V46.992C82.0779 47.472 81.7179 47.832 81.2619 47.832C80.8059 47.832 80.4219 47.472 80.4219 46.992V33.72C80.4219 33.264 80.8059 32.88 81.2619 32.88C81.7179 32.88 82.0779 33.264 82.0779 33.72V39.528H83.9739V33.384C83.9739 32.928 84.3579 32.544 84.8139 32.544C85.2699 32.544 85.6539 32.928 85.6539 33.384V47.496C85.6539 47.976 85.2699 48.336 84.8139 48.336ZM67.6779 47.52C65.4459 47.52 64.4619 46.896 64.4619 44.688V35.688C64.4619 33.696 65.1339 33.216 67.4139 33.216H75.7179C76.1499 33.216 76.5099 33.576 76.5099 34.008C76.5099 34.44 76.1499 34.8 75.7179 34.8H67.5339C66.3339 34.8 66.1419 34.944 66.1419 35.856V44.232C66.1419 45.816 66.3099 45.936 67.8699 45.936C71.9259 45.936 75.2859 45.504 77.8059 44.856C78.9339 44.568 79.2939 46.128 78.2139 46.392C75.6219 47.04 72.0219 47.52 67.6779 47.52ZM109.395 43.992C108.939 43.992 108.555 43.632 108.555 43.152V33.384C108.555 32.928 108.939 32.544 109.395 32.544C109.851 32.544 110.235 32.928 110.235 33.384V43.152C110.235 43.632 109.851 43.992 109.395 43.992ZM93.6512 48.096C91.5152 48.096 90.6512 47.544 90.6512 45.984V43.944C90.6512 43.368 91.0832 43.08 91.5152 43.08C91.9472 43.08 92.3792 43.368 92.3792 43.944V45.552C92.3792 46.344 92.5952 46.464 93.9632 46.464H109.899C110.331 46.464 110.715 46.824 110.715 47.28C110.715 47.736 110.331 48.096 109.899 48.096H93.6512ZM89.6912 41.928C88.6352 42.36 88.0832 40.848 89.1632 40.416C92.4752 39.144 95.3792 36.456 96.4112 33.456C96.5792 32.952 96.8432 32.712 97.2752 32.712C97.7072 32.712 97.9712 32.976 98.1392 33.456C99.1712 36.456 102.027 38.808 105.339 40.104C106.419 40.512 105.867 42.024 104.811 41.616C101.547 40.32 98.8112 38.208 97.2752 35.4C95.7392 38.232 92.9552 40.656 89.6912 41.928ZM139.838 43.992C139.382 43.992 138.998 43.632 138.998 43.152V38.064H137.51C137.078 38.064 136.718 37.704 136.718 37.272C136.718 36.84 137.078 36.48 137.51 36.48H138.998V33.384C138.998 32.928 139.382 32.544 139.838 32.544C140.294 32.544 140.678 32.928 140.678 33.384V43.152C140.678 43.632 140.294 43.992 139.838 43.992ZM124.094 48.096C121.958 48.096 121.094 47.544 121.094 45.984V43.944C121.094 43.368 121.526 43.08 121.958 43.08C122.39 43.08 122.822 43.368 122.822 43.944V45.552C122.822 46.344 123.038 46.464 124.406 46.464H140.342C140.774 46.464 141.158 46.824 141.158 47.28C141.158 47.736 140.774 48.096 140.342 48.096H124.094ZM120.254 41.664C119.726 41.784 119.366 41.448 119.294 41.04C119.222 40.656 119.414 40.2 119.966 40.104C123.254 39.432 126.782 36.984 126.902 34.608H120.734C120.182 34.608 119.918 34.2 119.918 33.816C119.918 33.408 120.182 33.024 120.734 33.024H134.534C135.086 33.024 135.35 33.408 135.35 33.816C135.35 34.2 135.086 34.608 134.534 34.608H128.534C128.654 36.984 132.23 39.456 135.254 40.104C135.782 40.2 135.974 40.656 135.902 41.04C135.83 41.448 135.47 41.784 134.918 41.664C132.326 41.112 129.158 39.336 127.718 36.96C126.254 39.384 122.99 41.064 120.254 41.664ZM165.715 48.336C165.259 48.336 164.875 47.976 164.875 47.496V41.136H162.979V46.992C162.979 47.472 162.619 47.832 162.163 47.832C161.707 47.832 161.323 47.472 161.323 46.992V33.72C161.323 33.264 161.707 32.88 162.163 32.88C162.619 32.88 162.979 33.264 162.979 33.72V39.528H164.875V33.384C164.875 32.928 165.259 32.544 165.715 32.544C166.171 32.544 166.555 32.928 166.555 33.384V47.496C166.555 47.976 166.171 48.336 165.715 48.336ZM151.795 48.312C147.379 48.312 144.379 45.84 144.379 42.744C144.379 39.648 147.379 37.176 151.795 37.176C156.211 37.176 159.211 39.648 159.211 42.744C159.211 45.84 156.211 48.312 151.795 48.312ZM151.795 46.776C155.227 46.776 157.603 45.048 157.603 42.744C157.603 40.44 155.227 38.712 151.795 38.712C148.363 38.712 145.987 40.44 145.987 42.744C145.987 45.048 148.363 46.776 151.795 46.776ZM145.339 35.616C144.907 35.616 144.571 35.28 144.571 34.848C144.571 34.416 144.907 34.08 145.339 34.08H150.955V33.264C150.955 32.808 151.339 32.424 151.795 32.424C152.251 32.424 152.635 32.808 152.635 33.264V34.08H158.251C158.683 34.08 159.019 34.416 159.019 34.848C159.019 35.28 158.683 35.616 158.251 35.616H145.339ZM174.697 43.2C172.393 43.248 171.361 42.552 171.361 40.32V36.096C171.361 33.864 172.393 33.216 174.697 33.216H189.649C190.705 33.216 190.753 34.8 189.649 34.8H174.817C173.209 34.8 173.041 34.92 173.041 36.696V39.888C173.041 41.496 173.209 41.592 174.817 41.616H190.369C191.473 41.616 191.425 43.2 190.369 43.2H174.697ZM171.193 47.904C170.737 47.904 170.377 47.544 170.377 47.088C170.377 46.656 170.737 46.296 171.193 46.296H191.137C191.569 46.296 191.929 46.656 191.929 47.088C191.929 47.544 191.569 47.904 191.137 47.904H171.193ZM198.558 40.104C196.926 40.104 196.182 39.48 196.182 38.112V37.776C196.182 36.384 196.926 35.712 198.63 35.712H207.27C207.87 35.712 208.086 35.568 208.086 35.136C208.086 34.728 207.87 34.56 207.27 34.56H196.95C195.918 34.56 195.918 33.024 196.95 33.024H207.27C208.95 33.024 209.766 33.696 209.766 35.088V35.136C209.766 36.552 208.998 37.224 207.294 37.224H198.678C198.054 37.224 197.862 37.368 197.862 37.848V37.968C197.862 38.448 198.054 38.568 198.678 38.568C204.102 38.568 207.894 38.496 211.326 37.92C212.502 37.728 212.718 39.288 211.638 39.456C208.014 40.032 204.294 40.104 198.558 40.104ZM198.51 48.336C197.046 48.336 196.23 47.472 196.23 46.176C196.23 44.856 197.046 44.04 198.51 44.04H214.47C214.926 44.04 215.094 43.752 215.094 43.392C215.094 43.032 214.926 42.792 214.47 42.792H196.95C195.87 42.792 195.87 41.28 196.95 41.28H214.518C215.958 41.28 216.774 42.144 216.774 43.416C216.774 44.712 215.958 45.528 214.518 45.528H198.534C198.102 45.528 197.91 45.768 197.91 46.152C197.91 46.536 198.102 46.8 198.534 46.8H216.438C217.542 46.8 217.518 48.336 216.438 48.336H198.51ZM215.526 40.272C215.07 40.272 214.686 39.912 214.686 39.432V33.384C214.686 32.928 215.07 32.544 215.526 32.544C215.982 32.544 216.366 32.928 216.366 33.384V39.432C216.366 39.912 215.982 40.272 215.526 40.272ZM235.955 41.184C235.499 41.184 235.139 40.824 235.139 40.368C235.139 39.912 235.499 39.552 235.955 39.552H237.371V33.72C237.371 33.264 237.755 32.88 238.211 32.88C238.667 32.88 239.027 33.264 239.027 33.72V46.992C239.027 47.472 238.667 47.832 238.211 47.832C237.755 47.832 237.371 47.472 237.371 46.992V41.184H235.955ZM241.403 48.336C240.947 48.336 240.563 47.976 240.563 47.496V33.384C240.563 32.928 240.947 32.544 241.403 32.544C241.859 32.544 242.243 32.928 242.243 33.384V47.496C242.243 47.976 241.859 48.336 241.403 48.336ZM221.411 47.712C220.859 47.784 220.523 47.448 220.475 47.064C220.403 46.68 220.595 46.248 221.123 46.152C225.899 45.24 231.059 41.736 232.283 35.784C232.475 34.944 232.403 34.8 231.731 34.8H221.723C221.291 34.8 220.931 34.44 220.931 34.008C220.931 33.576 221.291 33.216 221.723 33.216H232.091C233.915 33.216 234.395 34.176 233.891 36.24C232.379 43.2 226.187 46.896 221.411 47.712ZM256.84 43.56C250.72 43.56 246.52 41.328 246.52 38.016C246.52 34.68 250.72 32.472 256.84 32.472C262.96 32.472 267.16 34.68 267.16 38.016C267.16 41.328 262.96 43.56 256.84 43.56ZM256.84 41.976C261.904 41.976 265.48 40.416 265.48 38.016C265.48 35.616 261.904 34.056 256.84 34.056C251.776 34.056 248.2 35.616 248.2 38.016C248.2 40.416 251.776 41.976 256.84 41.976ZM246.856 47.928C246.4 47.928 246.064 47.592 246.064 47.136C246.064 46.704 246.4 46.368 246.856 46.368H250.24V45.048C250.24 44.568 250.624 44.208 251.08 44.208C251.536 44.208 251.92 44.568 251.92 45.048V46.368H261.76V45.048C261.76 44.568 262.144 44.208 262.6 44.208C263.056 44.208 263.44 44.568 263.44 45.048V46.368H266.848C267.28 46.368 267.616 46.704 267.616 47.136C267.616 47.592 267.28 47.928 266.848 47.928H246.856ZM271.942 48C271.006 48 270.43 47.472 270.43 46.872C270.43 46.272 271.006 45.744 271.942 45.744C272.878 45.744 273.454 46.272 273.454 46.872C273.454 47.472 272.878 48 271.942 48Z" fill="white"/>
</svg>
